# xmcd
#
# Track frame offsets:
#	150
#	20643
#	29589
#	48000
#	60532
#	74507
#	86233
#	102096
#	113720
#	124042
#	134904
#	147844
#	162547
#	176122
#	185923
#	207627
#	225471
#	242638
#	259258
#	272623
#
# Disc length: 3847 seconds
#
# Revision: 1
# Processed by: cddbd v1.5.2PL0 Copyright (c) Steve Scherf et al.
# Submitted via: audiograbber 1.83.01
#
DISCID=350f0514
DTITLE=Jonny Hill and Freddy Quinn - Country Time CD 2
DYEAR=2010
DGENRE=Country
TTITLE0=Jonny Hill - Der Feigling (The Coward Of The Country)
TTITLE1=Jonny Hill - Ein Ring aus Feuer (Ring Of Fire)
TTITLE2=Jonny Hill - Der Haus-Song (The House Song)
TTITLE3=Jonny Hill - Fünfhundert Meilen von Zuhaus (500 Miles Away From Home)
TTITLE4=Freddy Quinn - Denk doch mal auch mal an dich (Take Me Home, Country Ro
TTITLE4=ads)
TTITLE5=Freddy Quinn - Die Freiheit der Berge
TTITLE6=Jonny Hill - Ich möcht' so gern Dave Dudley hör'n
TTITLE7=Jonny Hill - Mehr hinterm Lenkrad als zu Haus (Truck Drinvin' man)
TTITLE8=Freddy Quinn - Die schönste Frau von Texas
TTITLE9=Freddy Quinn - Die Wahrheit über Tom Dooley
TTITLE10=Jonny Hill - Mein Lied für dich (Annie's Song)
TTITLE11=Jonny Hill - Nur noch einmal nach Haus (Detroit City)
TTITLE12=Freddy Quinn - Oh nur mit dir (Oh Lonesome Me)
TTITLE13=Freddy Quinn - Oh Susanna, du Rose der Prärie
TTITLE14=Jonny Hill - Ruf Teddybär Eins-Vier
TTITLE15=Jonny Hill - Vergiss deine Träume
TTITLE16=Jonny Hill - Wo der Mond versingt (Mary Ann Regrets)
TTITLE17=Freddy Quinn - Ein ausgedienter Zug
TTITLE18=Freddy Quinn - Green Green Grass Of Home (deutsch)
TTITLE19=Jonny Hill - Solang dein Traum dich trägt
EXTD=COUNTRY\nDEUTSCH
EXTT0=
EXTT1=
EXTT2=
EXTT3=
EXTT4=
EXTT5=
EXTT6=
EXTT7=
EXTT8=
EXTT9=
EXTT10=
EXTT11=
EXTT12=
EXTT13=
EXTT14=
EXTT15=
EXTT16=
EXTT17=
EXTT18=
EXTT19=
PLAYORDER=
